<?xml version="1.0" encoding="UTF-8" standalone="no"?>
<svg
   xmlns:dc="http://purl.org/dc/elements/1.1/"
   xmlns:cc="http://creativecommons.org/ns#"
   xmlns:rdf="http://www.w3.org/1999/02/22-rdf-syntax-ns#"
   xmlns:svg="http://www.w3.org/2000/svg"
   xmlns="http://www.w3.org/2000/svg"
   xmlns:sodipodi="http://sodipodi.sourceforge.net/DTD/sodipodi-0.dtd"
   xmlns:inkscape="http://www.inkscape.org/namespaces/inkscape"
   inkscape:export-ydpi="600"
   inkscape:export-xdpi="600"
   inkscape:export-filename="G:\Documents\team\banner_3.png"
   sodipodi:docname="banner_3 - Copy.svg"
   inkscape:version="1.0.2 (e86c870879, 2021-01-15, custom)"
   width="1184.2067"
   height="311.82806"
   viewBox="0 0 313.32135 82.504509"
   version="1.1"
   id="svg8">
  <defs
     id="defs2">
    <rect
       id="rect987"
       height="5.6126599"
       width="4.1426778"
       y="-10.289877"
       x="92.341621" />
  </defs>
  <sodipodi:namedview
     units="px"
     fit-margin-bottom="1"
     fit-margin-right="1"
     fit-margin-left="1"
     fit-margin-top="1"
     inkscape:pagecheckerboard="true"
     id="base"
     pagecolor="#242424"
     bordercolor="#666666"
     borderopacity="1.0"
     inkscape:pageopacity="0"
     inkscape:pageshadow="2"
     inkscape:zoom="1"
     inkscape:cx="388.62318"
     inkscape:cy="265.56036"
     inkscape:document-units="mm"
     inkscape:current-layer="g957"
     inkscape:document-rotation="0"
     showgrid="false"
     inkscape:window-width="1920"
     inkscape:window-height="1017"
     inkscape:window-x="-8"
     inkscape:window-y="-8"
     inkscape:window-maximized="1" />
  <metadata
     id="metadata5">
    <rdf:RDF>
      <cc:Work
         rdf:about="">
        <dc:format>image/svg+xml</dc:format>
        <dc:type
           rdf:resource="http://purl.org/dc/dcmitype/StillImage" />
        <dc:title />
      </cc:Work>
    </rdf:RDF>
  </metadata>
  <g
     transform="translate(-128.93553,-118.47026)"
     inkscape:label="Layer 1"
     inkscape:groupmode="layer"
     id="layer1">
    <g
       id="g847"
       transform="translate(110.27707,120.66547)"
       inkscape:label="Rendered Gears"
       style="fill:#000000;fill-opacity:0.391129" />
    <text
       style="font-size:4.23333px;line-height:1.25;font-family:sans-serif;letter-spacing:0px;word-spacing:0px;white-space:pre;shape-inside:url(#rect987);"
       id="text985"
       xml:space="preserve" />
    <g
       transform="matrix(1.3016033,0,0,1.3016033,103.28238,112.24996)"
       id="g904">
      <g
         id="g957">
        <text
           id="text875"
           y="42.978638"
           x="19.002659"
           style="font-style:normal;font-variant:normal;font-weight:normal;font-stretch:normal;font-size:56.4444px;line-height:1.25;font-family:'Franklin Gothic Medium';-inkscape-font-specification:'Franklin Gothic Medium, ';letter-spacing:0px;word-spacing:0px;fill:#00ff00;stroke-width:0.264583"
           xml:space="preserve"><tspan
             style="font-style:normal;font-variant:normal;font-weight:normal;font-stretch:normal;font-size:56.4444px;font-family:Calibri;-inkscape-font-specification:Calibri;fill:#ffffff;fill-opacity:1;stroke-width:0.264583"
             y="42.978638"
             x="19.002659"
             id="tspan873"
             sodipodi:role="line">te</tspan></text>
        <g
           id="g937"
           transform="translate(-2.2360243,45.533586)">
          <g
             transform="translate(-4.6104079,-67.644643)"
             id="g1006">
            <ellipse
               style="fill:#0db4ac;fill-opacity:1;stroke:none;stroke-width:0.318997;stroke-miterlimit:4;stroke-dasharray:none;stroke-opacity:1"
               id="path855"
               cx="72.319534"
               cy="79.186234"
               rx="10.489862"
               ry="1.9692895" />
            <path
               style="fill:#48f2e9;fill-opacity:1;stroke:none;stroke-width:0.318997;stroke-linecap:butt;stroke-linejoin:miter;stroke-miterlimit:4;stroke-dasharray:none;stroke-opacity:1"
               d="m 61.83032,79.80822 c 0.019,1.746189 8.134501,2.022594 10.89172,2.024879 2.757219,0.0023 10.018722,-0.537942 10.081769,-1.960936 -0.0012,5.35517 -5.486334,9.606 -10.23097,9.591535 C 67.828203,89.449238 61.835075,85.331286 61.83032,79.80822 Z"
               id="path859"
               sodipodi:nodetypes="czczc" />
          </g>
          <g
             transform="rotate(-20,-44.026803,2.2491219)"
             id="g1002">
            <path
               id="path980"
               d="m 87.076025,17.843163 2.712651,2.378563 c 6.023324,-2.205286 8.290631,4.930458 8.281897,7.313552 -0.01045,2.852451 -2.678259,7.341933 -7.29144,8.106343 l 0.198487,2.869215 c 5.592109,-0.378615 9.67039,-6.44651 9.67672,-10.761674 0.006,-4.315165 -4.575434,-13.307947 -13.578315,-9.905999 z"
               style="fill:#48f2e9;fill-opacity:1;stroke:none;stroke-width:0.264583px;stroke-linecap:butt;stroke-linejoin:miter;stroke-opacity:1"
               sodipodi:nodetypes="ccscczc" />
            <text
               xml:space="preserve"
               style="font-style:normal;font-variant:normal;font-weight:normal;font-stretch:normal;font-size:56.4444px;line-height:1.25;font-family:'Franklin Gothic Medium';-inkscape-font-specification:'Franklin Gothic Medium, ';letter-spacing:0px;word-spacing:0px;fill:#48f2e9;fill-opacity:1;stroke-width:0.264583"
               x="68.470573"
               y="42.715935"
               id="text875-3"><tspan
                 sodipodi:role="line"
                 id="tspan873-8"
                 x="68.470573"
                 y="42.715935"
                 style="font-style:normal;font-variant:normal;font-weight:normal;font-stretch:normal;font-size:56.4444px;font-family:Calibri;-inkscape-font-specification:Calibri;fill:#48f2e9;fill-opacity:1;stroke-width:0.264583">a</tspan></text>
            <ellipse
               style="fill:#48f2e9;fill-opacity:1;stroke:none;stroke-width:0.665001;stroke-miterlimit:4;stroke-dasharray:none;stroke-opacity:1"
               id="path991"
               cx="82.714546"
               cy="16.164433"
               rx="2.5390604"
               ry="1.403165" />
            <path
               style="fill:#48f2e9;fill-opacity:1;stroke:none;stroke-width:0.264583px;stroke-linecap:butt;stroke-linejoin:miter;stroke-opacity:1"
               d="m 73.69957,34.143681 c -2.581601,-2.628985 -4.951722,-3.882441 -7.483547,-5.345389 -1.198698,0.617417 -1.297022,1.259785 -1.737252,2.071338 3.064884,0.5302 5.328654,3.92589 8.018088,6.414469 z"
               id="path995"
               sodipodi:nodetypes="ccccc" />
          </g>
          <g
             transform="translate(1.6261995,-48.58271)"
             id="g922">
            <path
               style="fill:none;stroke:#48f2e9;stroke-width:0.432651;stroke-linecap:round;stroke-linejoin:miter;stroke-miterlimit:4;stroke-dasharray:none;stroke-opacity:1"
               d="m 66.097675,40.61522 0.05162,21.200193"
               id="path1008" />
            <path
               style="fill:#48f2e9;fill-opacity:1;stroke:none;stroke-width:0.264583px;stroke-linecap:butt;stroke-linejoin:miter;stroke-opacity:1"
               d="m 64.486744,56.767219 c -1.669489,-2.409845 -5.289917,-1.536344 -3.96875,-3.538802 1.150316,-2.050872 3.831709,1.177637 3.96875,3.538802 z"
               id="path1010"
               sodipodi:nodetypes="ccc" />
            <path
               sodipodi:nodetypes="ccc"
               id="path1010-9"
               d="m 67.453482,56.779319 c 1.163167,-1.678989 3.685594,-1.070403 2.76511,-2.465557 -0.801449,-1.428884 -2.669631,0.820484 -2.76511,2.465557 z"
               style="fill:#48f2e9;fill-opacity:1;stroke:none;stroke-width:0.18434px;stroke-linecap:butt;stroke-linejoin:miter;stroke-opacity:1" />
          </g>
        </g>
        <text
           id="text875-8"
           y="43.484581"
           x="96.682899"
           style="font-style:normal;font-variant:normal;font-weight:normal;font-stretch:normal;font-size:56.4444px;line-height:1.25;font-family:'Franklin Gothic Medium';-inkscape-font-specification:'Franklin Gothic Medium, ';letter-spacing:0px;word-spacing:0px;stroke:none;stroke-width:0.264583;stroke-opacity:1"
           xml:space="preserve"><tspan
             style="font-style:normal;font-variant:normal;font-weight:normal;font-stretch:normal;font-size:56.4444px;font-family:Calibri;-inkscape-font-specification:Calibri;fill:#ffffff;fill-opacity:1;stroke:none;stroke-width:0.264583;stroke-opacity:1"
             y="43.484581"
             x="96.682899"
             id="tspan873-0"
             sodipodi:role="line">'n</tspan></text>
      </g>
      <g
         id="g917">
        <g
           id="g1062"
           transform="matrix(0.94010917,0,0,0.94010917,190.03423,69.259273)"
           inkscape:label="Rendered Gears"
           style="fill:none;fill-opacity:1;stroke:#48f2e9;stroke-width:1.06371;stroke-miterlimit:4;stroke-dasharray:none;stroke-opacity:1">
          <path
             id="path1058"
             d="m 19.031378,-43.14019 0.4639,-0.03736 1.237,0.20261 1.7194,0.71941 v 1.20512 l -1.7194,0.71941 -1.237,0.20261 -0.4639,-0.03736 -0.2444,1.85623 0.4578,0.08399 1.1424,0.515861 1.4746,1.13991 -0.3119,1.16405 -1.847,0.24989 -1.2473,-0.12445 -0.4384,-0.15615 -0.7165,1.72973 0.4204,0.1996 0.97,0.79396 1.1293,1.482761 -0.6025,1.0436 -1.8488,-0.2366 -1.1725,-0.4431 -0.3831,-0.2643 -1.1398,1.4854 0.3545,0.3016 0.7314,1.0179 0.7071,1.7245 -0.8522,0.8522 -1.7245,-0.7071 -1.0179,-0.7314 -0.3016,-0.3545 -1.4854,1.1398 0.2643,0.3831 0.4431,1.1725 0.2366,1.8488 -1.0436,0.6025 -1.4827599,-1.1293 -0.7939602,-0.97 -0.1996,-0.4204 -1.72973,0.7165 0.15615,0.4384 0.12445,1.2473 -0.24989,1.847 -1.16405,0.3119 -1.13991,-1.4746 -0.51586,-1.1424 -0.08399,-0.4578 -1.85623,0.2444 0.03736,0.4639 -0.20261,1.237 -0.71941,1.7194 h -1.20512001 l -0.71941,-1.7194 -0.20261,-1.237 0.03736,-0.4639 -1.85622999,-0.2444 -0.08399,0.4578 -0.51586,1.1424 -1.13991,1.4746 -1.16405,-0.3119 -0.24989,-1.847 0.12445,-1.2473 0.15615,-0.4384 -1.72973,-0.7165 -0.1996,0.4204 -0.79396,0.97 -1.48276,1.1293 -1.0435999,-0.6025 0.2366,-1.8488 0.4431,-1.1725 0.2642999,-0.3831 -1.4853999,-1.1398 -0.3016,0.3545 -1.0179,0.7314 -1.7245,0.7071 -0.8522,-0.8522 0.7071,-1.7245 0.7314,-1.0179 0.3545,-0.3016 -1.1398,-1.4854 -0.3831,0.2643 -1.1725,0.4431 -1.8488,0.2366 -0.6025,-1.0436 1.1293,-1.482761 0.97,-0.79396 0.4204,-0.1996 -0.7165,-1.72973 -0.4384,0.15615 -1.2473,0.12445 -1.847,-0.24989 -0.3119,-1.16405 1.4746,-1.13991 1.1424,-0.515861 0.4578,-0.08399 -0.2444,-1.85623 -0.4639,0.03736 -1.237,-0.20261 -1.7194,-0.71941 v -1.20512 l 1.7194,-0.71941 1.237,-0.20261 0.4639,0.03736 0.2444,-1.856231 -0.4578,-0.08399 -1.1424,-0.51586 -1.4746,-1.13991 0.3119,-1.16405 1.847,-0.24989 1.2473,0.12445 0.4384,0.15615 0.7165,-1.729731 -0.4204,-0.1996 -0.97,-0.79396 -1.1293,-1.48276 0.6025,-1.0436 1.8488,0.2366 1.1725,0.4431 0.3831,0.2643 1.1398,-1.4854 -0.3545,-0.3016 -0.7314,-1.0179 -0.7071,-1.7245 0.8522,-0.8522 1.7245,0.7071 1.0179,0.7314 0.3016,0.3545 1.4853999,-1.1398 -0.2642999,-0.3831 -0.4431,-1.1725 -0.2366,-1.8488 1.0435999,-0.6025 1.48276,1.1293 0.79396,0.97 0.1996,0.4204 1.72973,-0.7165 -0.15615,-0.4384 -0.12445,-1.2473 0.24989,-1.847 1.16405,-0.3119 1.13991,1.4746 0.51586,1.1424 0.08399,0.4578 1.85622999,-0.2444 -0.03736,-0.4639 0.20261,-1.237 0.71941,-1.7194 H 1.1654379 l 0.71941,1.7194 0.20261,1.237 -0.03736,0.4639 1.85623,0.2444 0.08399,-0.4578 0.51586,-1.1424 1.13991,-1.4746 1.16405,0.3119 0.24989,1.847 -0.12445,1.2473 -0.15615,0.4384 1.72973,0.7165 0.1996,-0.4204 0.7939602,-0.97 1.4827599,-1.1293 1.0436,0.6025 -0.2366,1.8488 -0.4431,1.1725 -0.2643,0.3831 1.4854,1.1398 0.3016,-0.3545 1.0179,-0.7314 1.7245,-0.7071 0.8522,0.8522 -0.7071,1.7245 -0.7314,1.0179 -0.3545,0.3016 1.1398,1.4854 0.3831,-0.2643 1.1725,-0.4431 1.8488,-0.2366 0.6025,1.0436 -1.1293,1.48276 -0.97,0.79396 -0.4204,0.1996 0.7165,1.729731 0.4384,-0.15615 1.2473,-0.12445 1.847,0.24989 0.3119,1.16405 -1.4746,1.13991 -1.1424,0.51586 -0.4578,0.08399 z"
             style="fill:none;fill-opacity:1;stroke:#48f2e9;stroke-width:1.06371;stroke-miterlimit:4;stroke-dasharray:none;stroke-opacity:1" />
        </g>
        <text
           xml:space="preserve"
           style="font-style:normal;font-variant:normal;font-weight:normal;font-stretch:normal;font-size:56.4444px;line-height:1.25;font-family:'Franklin Gothic Medium';-inkscape-font-specification:'Franklin Gothic Medium, ';letter-spacing:0px;word-spacing:0px;stroke:none;stroke-width:0.264583;stroke-opacity:1"
           x="210.78119"
           y="43.609074"
           id="text875-8-0"><tspan
             sodipodi:role="line"
             id="tspan873-0-9"
             x="210.78119"
             y="43.609074"
             style="font-style:normal;font-variant:normal;font-weight:normal;font-stretch:normal;font-size:56.4444px;font-family:Calibri;-inkscape-font-specification:Calibri;fill:#ffffff;fill-opacity:1;stroke:none;stroke-width:0.264583;stroke-opacity:1">ch</tspan></text>
        <text
           id="text875-8-0-0"
           y="43.289368"
           x="176.01413"
           style="font-style:normal;font-variant:normal;font-weight:normal;font-stretch:normal;font-size:56.4444px;line-height:1.25;font-family:'Franklin Gothic Medium';-inkscape-font-specification:'Franklin Gothic Medium, ';letter-spacing:0px;word-spacing:0px;stroke:none;stroke-width:0.264583;stroke-opacity:1"
           xml:space="preserve"><tspan
             style="font-style:normal;font-variant:normal;font-weight:normal;font-stretch:normal;font-size:56.4444px;font-family:Calibri;-inkscape-font-specification:Calibri;fill:#ffffff;fill-opacity:1;stroke:none;stroke-width:0.264583;stroke-opacity:1"
             y="43.289368"
             x="176.01413"
             id="tspan873-0-9-2"
             sodipodi:role="line">e</tspan><tspan
             id="tspan888"
             style="font-style:normal;font-variant:normal;font-weight:normal;font-stretch:normal;font-size:56.4444px;font-family:Calibri;-inkscape-font-specification:Calibri;fill:#ffffff;fill-opacity:1;stroke:none;stroke-width:0.264583;stroke-opacity:1"
             y="115.91161"
             x="176.01413"
             sodipodi:role="line" /></text>
        <text
           xml:space="preserve"
           style="font-style:normal;font-variant:normal;font-weight:normal;font-stretch:normal;font-size:56.4444px;line-height:1.25;font-family:'Franklin Gothic Medium';-inkscape-font-specification:'Franklin Gothic Medium, ';letter-spacing:0px;word-spacing:0px;stroke:none;stroke-width:0.264583;stroke-opacity:1"
           x="151.64482"
           y="43.372055"
           id="text875-8-9"><tspan
             sodipodi:role="line"
             id="tspan873-0-8"
             x="151.64482"
             y="43.372055"
             style="font-style:normal;font-variant:normal;font-weight:normal;font-stretch:normal;font-size:56.4444px;font-family:Calibri;-inkscape-font-specification:Calibri;fill:#ffffff;fill-opacity:1;stroke:none;stroke-width:0.264583;stroke-opacity:1">t</tspan></text>
      </g>
    </g>
  </g>
</svg>
